<?xml version="1.0" encoding="utf-8"?>
<!-- Generator: Adobe Illustrator 28.2.0, SVG Export Plug-In . SVG Version: 6.00 Build 0)  -->
<svg version="1.1" id="Layer_1" xmlns="http://www.w3.org/2000/svg" xmlns:xlink="http://www.w3.org/1999/xlink" x="0px" y="0px"
	 viewBox="0 0 320 130" style="enable-background:new 0 0 320 130;" xml:space="preserve">
<style type="text/css">
	.st0{fill:#E2E2E2;}
</style>
<g>
	<path class="st0" d="M252.65,36.39c15.7,0,29.11,4.64,40.23,13.91c11.12,9.27,16.69,20.45,16.69,33.53v29.37
		c0,0.42-0.41,0.76-0.92,0.76h-24.87c-0.51,0-0.92-0.34-0.92-0.76V83.83c0-6.9-2.97-12.82-8.9-17.77
		c-5.93-4.94-13.04-7.42-21.32-7.42c-8.28,0-15.36,2.47-21.23,7.42c-5.87,4.94-8.81,10.87-8.81,17.77v29.37
		c0,0.42-0.41,0.76-0.92,0.76h-24.87c-0.51,0-0.92-0.34-0.92-0.76V83.83c0-6.9-2.94-12.82-8.81-17.77
		c-6.39-5.38-14.24-7.83-23.55-7.36c-6.51,0.33-12.74,2.51-17.59,6.16c-6.88,5.18-10.32,11.5-10.32,18.97v29.37
		c0,0.42-0.41,0.76-0.92,0.76h-24.87c-0.51,0,24.93-66.56,27.04-70.79c0.07-0.13,0.11-0.2,0.13-0.21
		c8.88-4.37,18.43-6.56,28.65-6.56c8.65,0,16.75,1.52,24.29,4.56c7.22,2.91,13.42,6.83,18.6,11.77c0.37,0.35,1.01,0.35,1.37,0
		c5.18-4.94,11.38-8.86,18.6-11.77C236.08,37.91,244.12,36.39,252.65,36.39z"/>
	<g>
		<path class="st0" d="M99.83,114.79c1.64-0.64,2.91-1.98,3.55-3.62c8.56-22.05,33.59-86.56,35.81-93.24
			c0.12-0.37-23.82-3.77-23.82-3.77c-0.49-0.07-0.93,0.21-0.98,0.62l-4.12,30.84c-0.07,0.53-0.77,0.79-1.33,0.5
			c-5.2-2.7-10.8-4.45-16.78-5.25l-32.53-4.35c-12.04-1.61-22.86,0.6-32.45,6.63c-9.6,6.03-15.08,14.1-16.43,24.21
			c-1.39,10.4,1.86,19.89,9.75,28.46c7.89,8.57,18.09,13.69,30.6,15.36l31.1,4.16c5.99,0.8,11.84,0.62,17.56-0.53
			C99.78,114.81,99.8,114.81,99.83,114.79z M85.06,93.94l-31.1-4.16c-5.36-0.72-9.77-2.94-13.21-6.68
			c-3.44-3.74-4.87-7.84-4.27-12.3c0.57-4.26,2.84-7.64,6.81-10.13c3.97-2.5,8.46-3.41,13.47-2.74l32.53,4.35
			c5.12,0.68,9.28,2.75,12.45,6.2c3.18,3.45,4.48,7.31,3.91,11.57l-0.16,1.19c-0.56,4.16-2.82,7.49-6.79,9.99
			C94.73,93.72,90.18,94.63,85.06,93.94z"/>
	</g>
</g>
<path class="st0" d="M109,5"/>
</svg>
